HIERARCHY
ROOT hip
{
  OFFSET 0 0 0
  CHANNELS 6 Xposition Yposition Zposition Zrotation Yrotation Xrotation
  JOINT abdomen
  {
    OFFSET 0 20.6881 -0.73152
    CHANNELS 3 Zrotation Xrotation Yrotation
    JOINT chest
    {
      OFFSET 0 11.7043 -0.48768
      CHANNELS 3 Zrotation Xrotation Yrotation
      JOINT neck
      {
        OFFSET 0 22.1894 -2.19456
        CHANNELS 3 Zrotation Xrotation Yrotation
        JOINT head
        {
          OFFSET -0.24384 7.07133 1.2192
          CHANNELS 3 Zrotation Xrotation Yrotation
          JOINT leftEye
          {
            OFFSET 4.14528 8.04674 8.04672
            CHANNELS 3 Zrotation Xrotation Yrotation
            End Site
            {
              OFFSET 1 0 0
            }
          }
          JOINT rightEye
          {
            OFFSET -3.6576 8.04674 8.04672
            CHANNELS 3 Zrotation Xrotation Yrotation
            End Site
            {
              OFFSET 1 0 0
            }
          }
        }
      }
      JOINT rCollar
      {
        OFFSET -2.68224 19.2634 -4.8768
        CHANNELS 3 Zrotation Xrotation Yrotation
        JOINT rShldr
        {
          OFFSET -8.77824 -1.95073 1.46304
          CHANNELS 3 Zrotation Xrotation Yrotation
          JOINT rForeArm
          {
            OFFSET -28.1742 -1.7115 0.48768
            CHANNELS 3 Zrotation Xrotation Yrotation
            JOINT rHand
            {
              OFFSET -22.5879 0.773209 7.07136
              CHANNELS 3 Zrotation Xrotation Yrotation
              JOINT rThumb1
              {
                OFFSET -1.2192 -0.487915 3.41376
                CHANNELS 3 Zrotation Xrotation Yrotation
                JOINT rThumb2
                {
                  OFFSET -3.37035 -0.52449 3.41376
                  CHANNELS 3 Zrotation Xrotation Yrotation
                  End Site
                  {
                    OFFSET -1.78271 -1.18214 1.43049
                  }
                }
              }
              JOINT rIndex1
              {
                OFFSET -7.75947 0.938293 5.60832
                CHANNELS 3 Zrotation Xrotation Yrotation
                JOINT rIndex2
                {
                  OFFSET -2.54057 -0.884171 1.56538
                  CHANNELS 3 Zrotation Xrotation Yrotation
                  End Site
                  {
                    OFFSET -1.62519 -0.234802 1.16502
                  }
                }
              }
              JOINT rMid1
              {
                OFFSET -8.24714 1.18213 3.41376
                CHANNELS 3 Zrotation Xrotation Yrotation
                JOINT rMid2
                {
                  OFFSET -3.10165 -0.590103 1.0647
                  CHANNELS 3 Zrotation Xrotation Yrotation
                  End Site
                  {
                    OFFSET -2.48547 -0.328903 0.83742
                  }
                }
              }
              JOINT rRing1
              {
                OFFSET -8.82822 0.546677 1.51678
                CHANNELS 3 Zrotation Xrotation Yrotation
                JOINT rRing2
                {
                  OFFSET -2.60934 -0.819778 -0.0198488
                  CHANNELS 3 Zrotation Xrotation Yrotation
                  End Site
                  {
                    OFFSET -2.33842 -0.294052 0.168128
                  }
                }
              }
              JOINT rPinky1
              {
                OFFSET -8.27202 -0.0477905 -0.4584
                CHANNELS 3 Zrotation Xrotation Yrotation
                JOINT rPinky2
                {
                  OFFSET -1.82734 -0.647385 -0.700984
                  CHANNELS 3 Zrotation Xrotation Yrotation
                  End Site
                  {
                    OFFSET -1.69225 -0.51767 -0.607171
                  }
                }
              }
            }
          }
        }
      }
      JOINT lCollar
      {
        OFFSET 2.68224 19.2634 -4.8768
        CHANNELS 3 Zrotation Xrotation Yrotation
        JOINT lShldr
        {
          OFFSET 8.77824 -1.95073 1.46304
          CHANNELS 3 Zrotation Xrotation Yrotation
          JOINT lForeArm
          {
            OFFSET 28.1742 -1.7115 0.48768
            CHANNELS 3 Zrotation Xrotation Yrotation
            JOINT lHand
            {
              OFFSET 22.5879 0.773209 7.07136
              CHANNELS 3 Zrotation Xrotation Yrotation
              JOINT lThumb1
              {
                OFFSET 1.2192 -0.487915 3.41376
                CHANNELS 3 Zrotation Xrotation Yrotation
                JOINT lThumb2
                {
                  OFFSET 3.37035 -0.52449 3.41376
                  CHANNELS 3 Zrotation Xrotation Yrotation
                  End Site
                  {
                    OFFSET 1.78271 -1.18214 1.43049
                  }
                }
              }
              JOINT lIndex1
              {
                OFFSET 7.75947 0.938293 5.60832
                CHANNELS 3 Zrotation Xrotation Yrotation
                JOINT lIndex2
                {
                  OFFSET 2.54057 -0.884171 1.56538
                  CHANNELS 3 Zrotation Xrotation Yrotation
                  End Site
                  {
                    OFFSET 1.62519 -0.234802 1.16502
                  }
                }
              }
              JOINT lMid1
              {
                OFFSET 8.24714 1.18213 3.41376
                CHANNELS 3 Zrotation Xrotation Yrotation
                JOINT lMid2
                {
                  OFFSET 3.10165 -0.590103 1.0647
                  CHANNELS 3 Zrotation Xrotation Yrotation
                  End Site
                  {
                    OFFSET 2.48547 -0.328903 0.83742
                  }
                }
              }
              JOINT lRing1
              {
                OFFSET 8.82822 0.546677 1.51678
                CHANNELS 3 Zrotation Xrotation Yrotation
                JOINT lRing2
                {
                  OFFSET 2.60934 -0.819778 -0.0198488
                  CHANNELS 3 Zrotation Xrotation Yrotation
                  End Site
                  {
                    OFFSET 2.33842 -0.294052 0.168128
                  }
                }
              }
              JOINT lPinky1
              {
                OFFSET 8.27202 -0.0477905 -0.4584
                CHANNELS 3 Zrotation Xrotation Yrotation
                JOINT lPinky2
                {
                  OFFSET 1.82734 -0.647385 -0.700984
                  CHANNELS 3 Zrotation Xrotation Yrotation
                  End Site
                  {
                    OFFSET 1.69225 -0.51767 -0.607171
                  }
                }
              }
            }
          }
        }
      }
    }
  }
  JOINT rButtock
  {
    OFFSET -8.77824 4.35084 1.2192
    CHANNELS 3 Zrotation Xrotation Yrotation
    JOINT rThigh
    {
      OFFSET 0 -1.70687 -2.19456
      CHANNELS 3 Zrotation Xrotation Yrotation
      JOINT rShin
      {
        OFFSET 0 -36.8199 0.73152
        CHANNELS 3 Zrotation Xrotation Yrotation
        JOINT rFoot
        {
          OFFSET 0.73152 -45.1104 -5.12064
          CHANNELS 3 Zrotation Xrotation Yrotation
          End Site
          {
            OFFSET -1.1221 -3.69964 12.103
          }
        }
      }
    }
  }
  JOINT lButtock
  {
    OFFSET 8.77824 4.35084 1.2192
    CHANNELS 3 Zrotation Xrotation Yrotation
    JOINT lThigh
    {
      OFFSET 0 -1.70687 -2.19456
      CHANNELS 3 Zrotation Xrotation Yrotation
      JOINT lShin
      {
        OFFSET 0 -36.8199 0.73152
        CHANNELS 3 Zrotation Xrotation Yrotation
        JOINT lFoot
        {
          OFFSET -0.73152 -45.1104 -5.12064
          CHANNELS 3 Zrotation Xrotation Yrotation
          End Site
          {
            OFFSET 1.1221 -3.69964 12.103
          }
        }
      }
    }
  }
}
MOTION
Frames:	4
Frame Time:	0.00833333
60.9208 82.6235 25.6492 177.49 -3.211 -158.203 -0.646841 -14.775 -1.12924 4.04394 14.2141 -0.961294 -0.049363 10.5926 -1.07239 3.29485 -1.94103 -5.273 -0.0 0.0 0.0 -0.0 0.0 0.0 5.46114e-14 3.20466e-13 1.02036e-14 81.6262 14.0731 -1.28599 -18.4998 -11.2342 35.1514 -0.038598 -5.59739 -0.789201 -5.84299e-10 5.7019e-10 -3.42545e-10 -1.00802e-09 9.8043e-10 -5.94159e-10 -5.84295e-10 5.70192e-10 -3.42561e-10 7.73091 5.47488 0.417314 -5.84301e-10 5.70191e-10 -3.42544e-10 2.90554 0.965183 0.102902 -5.8429e-10 5.70192e-10 -3.4255e-10 10.2786 0.731801 0.0259123 -5.84299e-10 5.70193e-10 -3.42548e-10 2.22167 -0.733487 -0.20892 5.4669e-14 3.20466e-13 9.92759e-15 -77.9808 25.0778 2.1801 16.0838 -8.76541 -29.8496 8.32366e-05 0.368894 -0.0518446 -1.24403e-09 -4.15071e-10 2.89982e-10 -2.14947e-09 -7.21728e-10 5.02452e-10 -1.24404e-09 -4.15069e-10 2.89999e-10 -7.73091 5.47488 -0.417314 -1.24403e-09 -4.15074e-10 2.89983e-10 -2.90554 0.965183 -0.102902 -1.24404e-09 -4.15074e-10 2.89986e-10 -10.2786 0.731801 -0.0259123 -1.24403e-09 -4.15077e-10 2.89975e-10 -2.22167 -0.733487 0.20892 -2.03217e-16 0.0 -3.88251e-19 7.90482 -35.7468 7.83191 0.0443099 21.3996 0.658488 -2.38266 -15.4825 -6.20738 2.03217e-16 0.0 3.88251e-19 -6.54826 -78.7148 -6.51443 134.126 88.5048 -134.686 1.86499 -8.21833 5.45314
60.953 82.6497 25.2576 177.538 -3.2262 -158.192 -0.657717 -14.6622 -0.933731 4.04103 14.1513 -0.917682 -0.166442 10.8953 -1.11261 3.58753 -2.49364 -5.218 -0.0 0.0 0.0 -0.0 0.0 0.0 2.57085e-14 2.42717e-13 -2.72925e-14 81.5026 14.0815 -0.995045 -18.542 -11.2814 35.2478 -0.03995 -5.69472 -0.803014 -2.69357e-10 2.86104e-10 -3.20684e-10 -4.63726e-10 4.90212e-10 -5.55882e-10 -2.69354e-10 2.86105e-10 -3.207e-10 7.73091 5.47488 0.417314 -2.69359e-10 2.86104e-10 -3.2068e-10 2.90554 0.965183 0.102902 -2.69348e-10 2.86105e-10 -3.20688e-10 10.2786 0.731801 0.0259123 -2.69358e-10 2.86106e-10 -3.20687e-10 2.22167 -0.733487 -0.20892 2.57629e-14 2.42716e-13 -2.75193e-14 -78.0162 25.0717 2.20202 16.0431 -8.72743 -29.7634 0.00026065 0.565753 -0.0795126 -9.1758e-10 -1.20961e-10 1.51974e-10 -1.58621e-09 -2.11861e-10 2.63223e-10 -9.17585e-10 -1.2096e-10 1.51988e-10 -7.73091 5.47488 -0.417314 -9.17578e-10 -1.20963e-10 1.5197e-10 -2.90554 0.965183 -0.102902 -9.17579e-10 -1.20962e-10 1.51977e-10 -10.2786 0.731801 -0.0259123 -9.17574e-10 -1.20964e-10 1.51966e-10 -2.22167 -0.733487 0.20892 -2.03217e-16 0.0 -3.88251e-19 7.95939 -35.3371 7.91972 0.0490044 21.2657 0.719235 -2.44427 -15.6359 -6.3431 2.03217e-16 0.0 3.88251e-19 -7.50954 -80.0791 -7.4761 138.409 88.3838 -138.996 1.92329 -8.42373 5.52772
60.9776 82.7029 24.8906 177.587 -3.2557 -158.2 -0.672465 -14.5534 -0.736822 4.03451 14.086 -0.873146 -0.267928 11.1788 -1.21046 3.85775 -3.02514 -5.10689 -0.0 0.0 0.0 -0.0 0.0 0.0 -4.62824e-15 1.43796e-13 -6.32558e-14 81.3772 14.1019 -0.708811 -18.5814 -11.3257 35.338 -0.0409892 -5.7688 -0.813529 1.19931e-10 -1.3042e-10 -2.55293e-10 2.09165e-10 -2.28824e-10 -4.41992e-10 1.19934e-10 -1.3042e-10 -2.55308e-10 7.73091 5.47488 0.417314 1.19929e-10 -1.3042e-10 -2.55287e-10 2.90554 0.965183 0.102902 1.1994e-10 -1.3042e-10 -2.55296e-10 10.2786 0.731801 0.0259123 1.19929e-10 -1.30418e-10 -2.55294e-10 2.22167 -0.733487 -0.20892 -4.5841e-15 1.43796e-13 -6.34317e-14 -78.0515 25.0612 2.23218 16.0013 -8.68851 -29.6752 0.000627243 0.759387 -0.10673 -5.28127e-10 1.06075e-10 -5.07911e-11 -9.1428e-10 1.82093e-10 -8.8065e-11 -5.28131e-10 1.06076e-10 -5.07817e-11 -7.73091 5.47488 -0.417314 -5.28124e-10 1.06075e-10 -5.07987e-11 -2.90554 0.965183 -0.102902 -5.28121e-10 1.06077e-10 -5.07887e-11 -10.2786 0.731801 -0.0259123 -5.28121e-10 1.06075e-10 -5.08e-11 -2.22167 -0.733487 0.20892 -2.03217e-16 0.0 -3.88251e-19 8.00613 -34.9246 7.99445 0.0537298 21.1138 0.779313 -2.49889 -15.781 -6.45441 2.03217e-16 0.0 3.88251e-19 -8.61204 -81.3794 -8.57653 139.566 88.35 -140.179 1.98313 -8.57996 5.62142
60.9809 82.7672 24.4941 177.552 -3.2084 -158.31 -0.734986 -14.4178 -0.536169 4.02923 13.9974 -0.825152 -0.312616 11.3074 -1.28342 3.99024 -3.29203 -5.07197 -0.0 0.0 0.0 -0.0 0.0 0.0 -2.10827e-14 7.63337e-14 -8.75646e-14 81.2566 14.1599 -0.433405 -18.6199 -11.3691 35.4263 -0.0415789 -5.8099 -0.819367 4.76267e-10 -6.16546e-10 -2.12868e-10 8.25596e-10 -1.06913e-09 -3.67757e-10 4.76269e-10 -6.16546e-10 -2.12884e-10 7.73091 5.47488 0.417314 4.76264e-10 -6.16546e-10 -2.12862e-10 2.90554 0.965183 0.102902 4.76276e-10 -6.16546e-10 -2.12871e-10 10.2786 0.731801 0.0259123 4.76263e-10 -6.16545e-10 -2.12868e-10 2.22167 -0.733487 -0.20892 -2.1061e-14 7.63329e-14 -8.77137e-14 -78.0795 25.0735 2.29214 15.9672 -8.65677 -29.6033 0.000929109 0.870346 -0.122329 -2.41864e-10 1.77647e-10 -2.69139e-10 -4.2042e-10 3.06701e-10 -4.66218e-10 -2.41866e-10 1.77647e-10 -2.69132e-10 -7.73091 5.47488 -0.417314 -2.4186e-10 1.77647e-10 -2.69148e-10 -2.90554 0.965183 -0.102902 -2.41856e-10 1.7765e-10 -2.69137e-10 -10.2786 0.731801 -0.0259123 -2.41858e-10 1.77648e-10 -2.69148e-10 -2.22167 -0.733487 0.20892 -2.03217e-16 0.0 -3.88251e-19 8.00798 -34.5209 8.03925 0.0585675 20.9619 0.837212 -2.54665 -15.9331 -6.53414 2.03217e-16 0.0 3.88251e-19 -9.85036 -82.5947 -9.77328 138.141 88.4025 -138.779 2.04421 -8.71825 5.72565
